<svg width="48" height="48" viewBox="0 0 48 48" fill="none" xmlns="http://www.w3.org/2000/svg">
<path d="M41.6391 35.5031H39.1172C38.9203 35.5031 38.7562 35.6672 38.7562 35.8641V38.7609H9.23906V9.23906H38.7609V12.1359C38.7609 12.3328 38.925 12.4969 39.1219 12.4969H41.6438C41.8406 12.4969 42.0047 12.3375 42.0047 12.1359V7.43906C42.0047 6.64219 41.3625 6 40.5656 6H7.43906C6.64219 6 6 6.64219 6 7.43906V40.5609C6 41.3578 6.64219 42 7.43906 42H40.5609C41.3578 42 42 41.3578 42 40.5609V35.8641C42 35.6625 41.8359 35.5031 41.6391 35.5031ZM42.2812 22.3125H27.5625V18.75C27.5625 18.4359 27.1969 18.2578 26.9531 18.4547L20.3016 23.7047C20.2567 23.7398 20.2205 23.7846 20.1956 23.8358C20.1706 23.8869 20.1577 23.9431 20.1577 24C20.1577 24.0569 20.1706 24.1131 20.1956 24.1642C20.2205 24.2154 20.2567 24.2602 20.3016 24.2953L26.9531 29.5453C27.2016 29.7422 27.5625 29.5641 27.5625 29.25V25.6875H42.2812C42.4875 25.6875 42.6562 25.5187 42.6562 25.3125V22.6875C42.6562 22.4813 42.4875 22.3125 42.2812 22.3125Z" fill="#E46778"/>
</svg>
