<svg width="48" height="48" viewBox="0 0 48 48" fill="none" xmlns="http://www.w3.org/2000/svg">
<path d="M6.36094 35.5031H8.88281C9.07969 35.5031 9.24375 35.6672 9.24375 35.8641V38.7609H38.7609V9.23906H9.23906V12.1359C9.23906 12.3328 9.075 12.4969 8.87813 12.4969H6.35625C6.15937 12.4969 5.99532 12.3375 5.99532 12.1359V7.43906C5.99532 6.64219 6.6375 6 7.43437 6H40.5609C41.3578 6 42 6.64219 42 7.43906V40.5609C42 41.3578 41.3578 42 40.5609 42H7.43906C6.64219 42 6 41.3578 6 40.5609V35.8641C6 35.6625 6.16406 35.5031 6.36094 35.5031ZM5.71875 22.3125H20.4375V18.75C20.4375 18.4359 20.8031 18.2578 21.0469 18.4547L27.6984 23.7047C27.7433 23.7398 27.7795 23.7846 27.8044 23.8358C27.8294 23.8869 27.8423 23.9431 27.8423 24C27.8423 24.0569 27.8294 24.1131 27.8044 24.1642C27.7795 24.2154 27.7433 24.2602 27.6984 24.2953L21.0469 29.5453C20.7984 29.7422 20.4375 29.5641 20.4375 29.25V25.6875H5.71875C5.5125 25.6875 5.34375 25.5187 5.34375 25.3125V22.6875C5.34375 22.4813 5.5125 22.3125 5.71875 22.3125Z" fill="#81B88E"/>
</svg>
