<svg width="183" height="48" viewBox="0 0 183 48" fill="none" xmlns="http://www.w3.org/2000/svg">
<path d="M166.34 15C166.34 14.7937 166.171 14.625 165.965 14.625H163.41C163.269 14.625 163.138 14.7047 163.077 14.8312L159.107 22.7438H158.952L154.982 14.8312C154.951 14.7695 154.903 14.7176 154.845 14.6812C154.786 14.6448 154.718 14.6254 154.649 14.625H152.038C151.977 14.625 151.916 14.6391 151.86 14.6719C151.677 14.7703 151.612 15 151.71 15.1781L156.58 24.1594H153.909C153.702 24.1594 153.534 24.3281 153.534 24.5344V25.8047C153.534 26.0109 153.702 26.1797 153.909 26.1797H157.471V28.0078H153.909C153.702 28.0078 153.534 28.1766 153.534 28.3828V29.6531C153.534 29.8594 153.702 30.0281 153.909 30.0281H157.471V33C157.471 33.2062 157.64 33.375 157.846 33.375H160.185C160.391 33.375 160.56 33.2062 160.56 33V30.0234H164.137C164.343 30.0234 164.512 29.8547 164.512 29.6484V28.3781C164.512 28.1719 164.343 28.0031 164.137 28.0031H160.56V26.175H164.137C164.343 26.175 164.512 26.0063 164.512 25.8V24.5297C164.512 24.3234 164.343 24.1547 164.137 24.1547H161.437L166.298 15.1734C166.321 15.1219 166.34 15.0609 166.34 15ZM142.401 23.6344C142.489 19.3622 144.227 15.2901 147.252 12.2719C148.776 10.7484 150.548 9.54844 152.521 8.71406C154.565 7.85156 156.735 7.41094 158.971 7.41094C161.212 7.41094 163.382 7.84687 165.421 8.71406C167.394 9.54844 169.166 10.7484 170.69 12.2719C171.159 12.7406 171.594 13.2328 171.998 13.7438L169.654 15.5766C169.598 15.6198 169.555 15.6778 169.531 15.7441C169.507 15.8104 169.502 15.8822 169.516 15.9512C169.531 16.0203 169.565 16.0838 169.614 16.1344C169.663 16.185 169.726 16.2208 169.794 16.2375L177.144 18.0328C177.379 18.0891 177.609 17.9109 177.609 17.6719L177.646 10.1016C177.646 9.7875 177.285 9.60938 177.041 9.80625L174.801 11.5594C171.126 6.85781 165.402 3.84375 158.976 3.84375C147.984 3.84375 139.044 12.6609 138.843 23.6156C138.842 23.6657 138.85 23.7154 138.869 23.762C138.887 23.8086 138.914 23.851 138.949 23.8869C138.984 23.9227 139.026 23.9512 139.072 23.9706C139.118 23.99 139.168 24 139.218 24H142.03C142.232 24 142.396 23.8359 142.401 23.6344ZM178.78 24H175.968C175.766 24 175.598 24.1641 175.593 24.3656C175.505 28.6378 173.766 32.7099 170.741 35.7281C169.232 37.2439 167.443 38.4522 165.473 39.2859C163.429 40.1484 161.259 40.5891 159.023 40.5891C156.787 40.5891 154.612 40.1531 152.573 39.2859C150.603 38.4522 148.813 37.2439 147.304 35.7281C146.835 35.2594 146.399 34.7672 145.996 34.2562L148.335 32.4234C148.391 32.3802 148.433 32.3222 148.458 32.2559C148.482 32.1896 148.487 32.1178 148.472 32.0488C148.458 31.9797 148.424 31.9163 148.375 31.8656C148.326 31.815 148.263 31.7792 148.194 31.7625L140.844 29.9672C140.61 29.9109 140.38 30.0891 140.38 30.3281L140.343 37.9078C140.343 38.2219 140.704 38.4 140.948 38.2031L143.188 36.45C146.873 41.1422 152.596 44.1562 159.023 44.1562C170.015 44.1562 178.954 35.3391 179.155 24.3844C179.157 24.3343 179.148 24.2846 179.13 24.238C179.111 24.1914 179.084 24.1489 179.049 24.1131C179.014 24.0773 178.972 24.0488 178.926 24.0294C178.88 24.01 178.83 24 178.78 24Z" fill="#F24405"/>
<path d="M1.43466 19V4.45455H10.7528V6.66335H4.0696V10.6122H10.1136V12.821H4.0696V19H1.43466ZM13.0398 19V8.09091H15.6108V19H13.0398ZM14.3324 6.54261C13.9252 6.54261 13.5748 6.40767 13.2812 6.13778C12.9877 5.86316 12.8409 5.53409 12.8409 5.15057C12.8409 4.76231 12.9877 4.43324 13.2812 4.16335C13.5748 3.88873 13.9252 3.75142 14.3324 3.75142C14.7443 3.75142 15.0947 3.88873 15.3835 4.16335C15.6771 4.43324 15.8239 4.76231 15.8239 5.15057C15.8239 5.53409 15.6771 5.86316 15.3835 6.13778C15.0947 6.40767 14.7443 6.54261 14.3324 6.54261ZM20.8256 12.608V19H18.2546V8.09091H20.712V9.9446H20.8398C21.0908 9.33381 21.4909 8.84848 22.0401 8.48864C22.5941 8.12879 23.2783 7.94886 24.0927 7.94886C24.8455 7.94886 25.5013 8.10985 26.06 8.43182C26.6235 8.75379 27.0591 9.22017 27.3668 9.83097C27.6793 10.4418 27.8332 11.1828 27.8285 12.054V19H25.2575V12.4517C25.2575 11.7225 25.0681 11.152 24.6893 10.7401C24.3152 10.3281 23.7968 10.1222 23.1339 10.1222C22.6841 10.1222 22.284 10.2216 21.9336 10.4205C21.5879 10.6146 21.3157 10.8963 21.1168 11.2656C20.9227 11.6349 20.8256 12.0824 20.8256 12.608ZM33.5813 19.2202C32.89 19.2202 32.2674 19.0971 31.7134 18.8509C31.1642 18.5999 30.7286 18.2306 30.4066 17.7429C30.0894 17.2552 29.9308 16.6539 29.9308 15.9389C29.9308 15.3234 30.0444 14.8144 30.2717 14.4119C30.4989 14.0095 30.8091 13.6875 31.2021 13.446C31.5951 13.2045 32.0378 13.0223 32.5302 12.8991C33.0273 12.7713 33.5411 12.679 34.0714 12.6222C34.7106 12.5559 35.229 12.4967 35.6268 12.4446C36.0245 12.3878 36.3133 12.3026 36.4933 12.1889C36.6779 12.0705 36.7702 11.8883 36.7702 11.642V11.5994C36.7702 11.0644 36.6116 10.6501 36.2944 10.3565C35.9772 10.063 35.5202 9.91619 34.9237 9.91619C34.2939 9.91619 33.7944 10.0535 33.4251 10.3281C33.0605 10.6027 32.8143 10.9271 32.6864 11.3011L30.2859 10.9602C30.4753 10.2973 30.7878 9.74337 31.2234 9.2983C31.659 8.84848 32.1916 8.51231 32.8214 8.28977C33.4511 8.0625 34.1471 7.94886 34.9094 7.94886C35.435 7.94886 35.9582 8.01042 36.479 8.13352C36.9999 8.25663 37.4757 8.46023 37.9066 8.74432C38.3375 9.02367 38.6831 9.40483 38.9435 9.88778C39.2087 10.3707 39.3413 10.9744 39.3413 11.6989V19H36.8697V17.5014H36.7844C36.6282 17.8045 36.408 18.0885 36.1239 18.3537C35.8446 18.6141 35.4918 18.8248 35.0657 18.9858C34.6443 19.142 34.1495 19.2202 33.5813 19.2202ZM34.2489 17.331C34.765 17.331 35.2125 17.2292 35.5913 17.0256C35.9701 16.8172 36.2612 16.5426 36.4648 16.2017C36.6732 15.8608 36.7773 15.4891 36.7773 15.0866V13.8011C36.6969 13.8674 36.5595 13.929 36.3654 13.9858C36.176 14.0426 35.9629 14.0923 35.7262 14.1349C35.4895 14.1776 35.2551 14.2154 35.0231 14.2486C34.7911 14.2817 34.5898 14.3101 34.4194 14.3338C34.0359 14.3859 33.6926 14.4711 33.3896 14.5895C33.0865 14.7079 32.8474 14.8736 32.6722 15.0866C32.497 15.295 32.4094 15.5649 32.4094 15.8963C32.4094 16.3698 32.5823 16.7273 32.9279 16.9688C33.2736 17.2102 33.7139 17.331 34.2489 17.331ZM44.4975 12.608V19H41.9265V8.09091H44.3839V9.9446H44.5117C44.7627 9.33381 45.1628 8.84848 45.712 8.48864C46.266 8.12879 46.9502 7.94886 47.7646 7.94886C48.5174 7.94886 49.1732 8.10985 49.7319 8.43182C50.2953 8.75379 50.7309 9.22017 51.0387 9.83097C51.3512 10.4418 51.5051 11.1828 51.5004 12.054V19H48.9293V12.4517C48.9293 11.7225 48.7399 11.152 48.3612 10.7401C47.9871 10.3281 47.4686 10.1222 46.8058 10.1222C46.3559 10.1222 45.9558 10.2216 45.6055 10.4205C45.2598 10.6146 44.9876 10.8963 44.7887 11.2656C44.5946 11.6349 44.4975 12.0824 44.4975 12.608ZM58.8725 19.2131C57.7835 19.2131 56.8484 18.974 56.0671 18.4957C55.2906 18.0175 54.6916 17.357 54.2702 16.5142C53.8536 15.6667 53.6452 14.6913 53.6452 13.5881C53.6452 12.4801 53.8583 11.5024 54.2844 10.6548C54.7106 9.80256 55.3119 9.13968 56.0884 8.66619C56.8697 8.18797 57.793 7.94886 58.8583 7.94886C59.7437 7.94886 60.5273 8.11222 61.2092 8.43892C61.8957 8.76089 62.4426 9.2178 62.8498 9.80966C63.257 10.3968 63.489 11.0833 63.5458 11.8693H61.0884C60.989 11.3437 60.7522 10.9058 60.3782 10.5554C60.0089 10.2003 59.5141 10.0227 58.8938 10.0227C58.3683 10.0227 57.9066 10.1648 57.5089 10.4489C57.1112 10.7282 56.801 11.1307 56.5785 11.6562C56.3607 12.1818 56.2518 12.8116 56.2518 13.5455C56.2518 14.2888 56.3607 14.928 56.5785 15.4631C56.7963 15.9934 57.1017 16.4029 57.4947 16.6918C57.8924 16.9759 58.3588 17.1179 58.8938 17.1179C59.2726 17.1179 59.6112 17.0469 59.9094 16.9048C60.2125 16.758 60.4658 16.5473 60.6694 16.2727C60.873 15.9981 61.0127 15.6643 61.0884 15.2713H63.5458C63.4843 16.0431 63.257 16.7273 62.864 17.3239C62.471 17.9157 61.936 18.3797 61.2589 18.7159C60.5818 19.0473 59.7863 19.2131 58.8725 19.2131ZM70.4865 19.2131C69.3928 19.2131 68.4482 18.9858 67.6527 18.5312C66.862 18.072 66.2536 17.4233 65.8274 16.5852C65.4013 15.7424 65.1882 14.7505 65.1882 13.6094C65.1882 12.4872 65.4013 11.5024 65.8274 10.6548C66.2583 9.80256 66.8596 9.13968 67.6314 8.66619C68.4032 8.18797 69.3099 7.94886 70.3516 7.94886C71.0239 7.94886 71.6584 8.05777 72.255 8.27557C72.8563 8.48864 73.3866 8.82008 73.8459 9.26989C74.3099 9.7197 74.6745 10.2926 74.9396 10.9886C75.2048 11.6799 75.3374 12.5038 75.3374 13.4602V14.2486H66.3956V12.5156H72.8729C72.8681 12.0232 72.7616 11.5852 72.5533 11.2017C72.3449 10.8134 72.0537 10.508 71.6797 10.2855C71.3104 10.063 70.8795 9.9517 70.3871 9.9517C69.8615 9.9517 69.3999 10.0795 69.0021 10.3352C68.6044 10.5862 68.2943 10.9176 68.0717 11.3295C67.8539 11.7367 67.7427 12.1842 67.7379 12.6719V14.1847C67.7379 14.8191 67.8539 15.3636 68.0859 15.8182C68.3179 16.268 68.6423 16.6136 69.0589 16.8551C69.4756 17.0919 69.9633 17.2102 70.522 17.2102C70.8961 17.2102 71.2346 17.1581 71.5376 17.054C71.8407 16.9451 72.1035 16.7865 72.326 16.5781C72.5485 16.3698 72.7166 16.1117 72.8303 15.804L75.2308 16.0739C75.0793 16.7083 74.7905 17.2623 74.3643 17.7358C73.9429 18.2045 73.4032 18.5691 72.745 18.8295C72.0869 19.0852 71.334 19.2131 70.4865 19.2131Z" fill="#F24405"/>
<path d="M40.4347 28.4545H43.6591L47.9773 38.9943H48.1477L52.4659 28.4545H55.6903V43H53.1619V33.0071H53.027L49.0071 42.9574H47.1179L43.098 32.9858H42.9631V43H40.4347V28.4545ZM61.5852 43.2202C60.8939 43.2202 60.2713 43.0971 59.7173 42.8509C59.1681 42.5999 58.7325 42.2306 58.4105 41.7429C58.0933 41.2552 57.9347 40.6539 57.9347 39.9389C57.9347 39.3234 58.0483 38.8144 58.2756 38.4119C58.5028 38.0095 58.813 37.6875 59.206 37.446C59.599 37.2045 60.0417 37.0223 60.5341 36.8991C61.0313 36.7713 61.545 36.679 62.0753 36.6222C62.7145 36.5559 63.233 36.4967 63.6307 36.4446C64.0284 36.3878 64.3172 36.3026 64.4972 36.1889C64.6818 36.0705 64.7741 35.8883 64.7741 35.642V35.5994C64.7741 35.0644 64.6155 34.6501 64.2983 34.3565C63.9811 34.063 63.5241 33.9162 62.9276 33.9162C62.2978 33.9162 61.7983 34.0535 61.429 34.3281C61.0644 34.6027 60.8182 34.9271 60.6903 35.3011L58.2898 34.9602C58.4792 34.2973 58.7917 33.7434 59.2273 33.2983C59.6629 32.8485 60.1955 32.5123 60.8253 32.2898C61.455 32.0625 62.151 31.9489 62.9134 31.9489C63.4389 31.9489 63.9621 32.0104 64.483 32.1335C65.0038 32.2566 65.4796 32.4602 65.9105 32.7443C66.3414 33.0237 66.687 33.4048 66.9474 33.8878C67.2126 34.3707 67.3452 34.9744 67.3452 35.6989V43H64.8736V41.5014H64.7884C64.6321 41.8045 64.4119 42.0885 64.1278 42.3537C63.8485 42.6141 63.4957 42.8248 63.0696 42.9858C62.6482 43.142 62.1534 43.2202 61.5852 43.2202ZM62.2528 41.331C62.7689 41.331 63.2164 41.2292 63.5952 41.0256C63.974 40.8172 64.2652 40.5426 64.4688 40.2017C64.6771 39.8608 64.7812 39.4891 64.7812 39.0866V37.8011C64.7008 37.8674 64.5634 37.929 64.3693 37.9858C64.1799 38.0426 63.9669 38.0923 63.7301 38.1349C63.4934 38.1776 63.259 38.2154 63.027 38.2486C62.795 38.2817 62.5938 38.3101 62.4233 38.3338C62.0398 38.3859 61.6965 38.4711 61.3935 38.5895C61.0904 38.7079 60.8513 38.8736 60.6761 39.0866C60.5009 39.295 60.4134 39.5649 60.4134 39.8963C60.4134 40.3698 60.5862 40.7273 60.9318 40.9688C61.2775 41.2102 61.7178 41.331 62.2528 41.331ZM72.5014 36.608V43H69.9304V32.0909H72.3878V33.9446H72.5156C72.7666 33.3338 73.1667 32.8485 73.7159 32.4886C74.2699 32.1288 74.9541 31.9489 75.7685 31.9489C76.5213 31.9489 77.1771 32.1098 77.7358 32.4318C78.2992 32.7538 78.7348 33.2202 79.0426 33.831C79.3551 34.4418 79.509 35.1828 79.5043 36.054V43H76.9332V36.4517C76.9332 35.7225 76.7438 35.152 76.3651 34.7401C75.991 34.3281 75.4725 34.1222 74.8097 34.1222C74.3598 34.1222 73.9598 34.2216 73.6094 34.4205C73.2637 34.6146 72.9915 34.8963 72.7926 35.2656C72.5985 35.6349 72.5014 36.0824 72.5014 36.608ZM85.2571 43.2202C84.5658 43.2202 83.9432 43.0971 83.3892 42.8509C82.84 42.5999 82.4044 42.2306 82.0824 41.7429C81.7652 41.2552 81.6065 40.6539 81.6065 39.9389C81.6065 39.3234 81.7202 38.8144 81.9474 38.4119C82.1747 38.0095 82.4848 37.6875 82.8778 37.446C83.2708 37.2045 83.7135 37.0223 84.206 36.8991C84.7031 36.7713 85.2169 36.679 85.7472 36.6222C86.3864 36.5559 86.9048 36.4967 87.3026 36.4446C87.7003 36.3878 87.9891 36.3026 88.169 36.1889C88.3537 36.0705 88.446 35.8883 88.446 35.642V35.5994C88.446 35.0644 88.2874 34.6501 87.9702 34.3565C87.6529 34.063 87.196 33.9162 86.5994 33.9162C85.9697 33.9162 85.4702 34.0535 85.1009 34.3281C84.7363 34.6027 84.4901 34.9271 84.3622 35.3011L81.9616 34.9602C82.151 34.2973 82.4635 33.7434 82.8991 33.2983C83.3348 32.8485 83.8674 32.5123 84.4972 32.2898C85.1269 32.0625 85.8229 31.9489 86.5852 31.9489C87.1108 31.9489 87.634 32.0104 88.1548 32.1335C88.6757 32.2566 89.1515 32.4602 89.5824 32.7443C90.0133 33.0237 90.3589 33.4048 90.6193 33.8878C90.8845 34.3707 91.017 34.9744 91.017 35.6989V43H88.5455V41.5014H88.4602C88.304 41.8045 88.0838 42.0885 87.7997 42.3537C87.5204 42.6141 87.1676 42.8248 86.7415 42.9858C86.3201 43.142 85.8253 43.2202 85.2571 43.2202ZM85.9247 41.331C86.4408 41.331 86.8883 41.2292 87.267 41.0256C87.6458 40.8172 87.937 40.5426 88.1406 40.2017C88.349 39.8608 88.4531 39.4891 88.4531 39.0866V37.8011C88.3726 37.8674 88.2353 37.929 88.0412 37.9858C87.8518 38.0426 87.6387 38.0923 87.402 38.1349C87.1652 38.1776 86.9309 38.2154 86.6989 38.2486C86.4669 38.2817 86.2656 38.3101 86.0952 38.3338C85.7116 38.3859 85.3684 38.4711 85.0653 38.5895C84.7623 38.7079 84.5232 38.8736 84.348 39.0866C84.1728 39.295 84.0852 39.5649 84.0852 39.8963C84.0852 40.3698 84.258 40.7273 84.6037 40.9688C84.9493 41.2102 85.3897 41.331 85.9247 41.331ZM98.3466 47.3182C97.4233 47.3182 96.6302 47.1927 95.9673 46.9418C95.3045 46.6955 94.7718 46.3641 94.3693 45.9474C93.9669 45.5308 93.6875 45.0691 93.5312 44.5625L95.8466 44.0014C95.9508 44.2145 96.1023 44.4252 96.3011 44.6335C96.5 44.8466 96.7675 45.0218 97.1037 45.1591C97.4446 45.3011 97.8731 45.3722 98.3892 45.3722C99.1184 45.3722 99.7221 45.1946 100.2 44.8395C100.679 44.4891 100.918 43.9115 100.918 43.1065V41.0398H100.79C100.657 41.3049 100.463 41.5772 100.207 41.8565C99.9564 42.1359 99.6226 42.3703 99.206 42.5597C98.794 42.7491 98.2756 42.8438 97.6506 42.8438C96.8125 42.8438 96.0526 42.6473 95.3707 42.2543C94.6937 41.8565 94.1539 41.2647 93.7514 40.4787C93.3537 39.688 93.1548 38.6984 93.1548 37.5099C93.1548 36.312 93.3537 35.3011 93.7514 34.4773C94.1539 33.6487 94.696 33.0213 95.3778 32.5952C96.0597 32.1643 96.8196 31.9489 97.6577 31.9489C98.2969 31.9489 98.8224 32.0578 99.2344 32.2756C99.651 32.4886 99.9825 32.7467 100.229 33.0497C100.475 33.348 100.662 33.6297 100.79 33.8949H100.932V32.0909H103.467V43.1776C103.467 44.1103 103.245 44.8821 102.8 45.4929C102.355 46.1037 101.746 46.5606 100.974 46.8636C100.203 47.1667 99.3267 47.3182 98.3466 47.3182ZM98.3679 40.8267C98.9124 40.8267 99.3764 40.6941 99.7599 40.429C100.143 40.1638 100.435 39.7827 100.634 39.2855C100.832 38.7884 100.932 38.1918 100.932 37.4957C100.932 36.8092 100.832 36.2079 100.634 35.6918C100.439 35.1757 100.151 34.7756 99.767 34.4915C99.3883 34.2027 98.9219 34.0582 98.3679 34.0582C97.795 34.0582 97.3168 34.2074 96.9332 34.5057C96.5497 34.804 96.2609 35.2135 96.0668 35.7344C95.8726 36.2505 95.7756 36.8376 95.7756 37.4957C95.7756 38.1634 95.8726 38.7481 96.0668 39.25C96.2656 39.7472 96.5568 40.1354 96.9403 40.4148C97.3286 40.6894 97.8045 40.8267 98.3679 40.8267ZM110.932 43.2131C109.838 43.2131 108.893 42.9858 108.098 42.5312C107.307 42.072 106.699 41.4233 106.273 40.5852C105.847 39.7424 105.634 38.7505 105.634 37.6094C105.634 36.4872 105.847 35.5024 106.273 34.6548C106.704 33.8026 107.305 33.1397 108.077 32.6662C108.848 32.188 109.755 31.9489 110.797 31.9489C111.469 31.9489 112.104 32.0578 112.7 32.2756C113.302 32.4886 113.832 32.8201 114.291 33.2699C114.755 33.7197 115.12 34.2926 115.385 34.9886C115.65 35.6799 115.783 36.5038 115.783 37.4602V38.2486H106.841V36.5156H113.318C113.313 36.0232 113.207 35.5852 112.999 35.2017C112.79 34.8134 112.499 34.508 112.125 34.2855C111.756 34.063 111.325 33.9517 110.832 33.9517C110.307 33.9517 109.845 34.0795 109.447 34.3352C109.05 34.5862 108.74 34.9176 108.517 35.3295C108.299 35.7367 108.188 36.1842 108.183 36.6719V38.1847C108.183 38.8191 108.299 39.3636 108.531 39.8182C108.763 40.268 109.088 40.6136 109.504 40.8551C109.921 41.0919 110.409 41.2102 110.967 41.2102C111.341 41.2102 111.68 41.1581 111.983 41.054C112.286 40.9451 112.549 40.7865 112.771 40.5781C112.994 40.3698 113.162 40.1117 113.276 39.804L115.676 40.0739C115.525 40.7083 115.236 41.2623 114.81 41.7358C114.388 42.2045 113.848 42.5691 113.19 42.8295C112.532 43.0852 111.779 43.2131 110.932 43.2131ZM117.958 43V32.0909H120.451V33.9091H120.564C120.763 33.2794 121.104 32.794 121.587 32.4531C122.075 32.1075 122.631 31.9347 123.256 31.9347C123.398 31.9347 123.557 31.9418 123.732 31.956C123.912 31.9654 124.061 31.982 124.179 32.0057V34.3707C124.07 34.3329 123.898 34.2997 123.661 34.2713C123.429 34.2382 123.204 34.2216 122.986 34.2216C122.517 34.2216 122.096 34.3234 121.722 34.527C121.353 34.7259 121.061 35.0028 120.848 35.358C120.635 35.7131 120.529 36.1226 120.529 36.5866V43H117.958Z" fill="#F24405"/>
</svg>
