<svg width="28" height="28" viewBox="0 0 28 28" fill="none" xmlns="http://www.w3.org/2000/svg">
<path d="M9.84375 8.09375H9.625C9.74531 8.09375 9.84375 7.99531 9.84375 7.875V8.09375H18.1562V7.875C18.1562 7.99531 18.2547 8.09375 18.375 8.09375H18.1562V10.0625H20.125V7.875C20.125 6.90977 19.3402 6.125 18.375 6.125H9.625C8.65977 6.125 7.875 6.90977 7.875 7.875V10.0625H9.84375V8.09375ZM23.625 10.0625H4.375C3.89102 10.0625 3.5 10.4535 3.5 10.9375V11.8125C3.5 11.9328 3.59844 12.0312 3.71875 12.0312H5.37031L6.0457 26.332C6.08945 27.2645 6.86055 28 7.79297 28H20.207C21.1422 28 21.9105 27.2672 21.9543 26.332L22.6297 12.0312H24.2812C24.4016 12.0312 24.5 11.9328 24.5 11.8125V10.9375C24.5 10.4535 24.109 10.0625 23.625 10.0625ZM19.9965 26.0312H8.00352L7.3418 12.0312H20.6582L19.9965 26.0312Z" fill="#211E19"/>
</svg>
