<svg width="48" height="48" viewBox="0 0 48 48" fill="none" xmlns="http://www.w3.org/2000/svg">
<path d="M40.2413 35.7937C39.3571 33.6992 38.0739 31.7967 36.4632 30.1922C34.8574 28.583 32.9552 27.3 30.8616 26.4141C30.8429 26.4047 30.8241 26.4 30.8054 26.3906C33.7257 24.2812 35.6241 20.8453 35.6241 16.9688C35.6241 10.5469 30.421 5.34375 23.9991 5.34375C17.5773 5.34375 12.3741 10.5469 12.3741 16.9688C12.3741 20.8453 14.2726 24.2812 17.1929 26.3953C17.1741 26.4047 17.1554 26.4094 17.1366 26.4187C15.0366 27.3047 13.1523 28.575 11.5351 30.1969C9.9259 31.8027 8.64291 33.7049 7.75695 35.7984C6.88659 37.8481 6.41718 40.0455 6.37414 42.2719C6.37289 42.3219 6.38166 42.3717 6.39995 42.4183C6.41823 42.4648 6.44566 42.5073 6.48061 42.5431C6.51555 42.5789 6.55732 42.6074 6.60344 42.6268C6.64955 42.6463 6.6991 42.6563 6.74914 42.6562H9.56164C9.76789 42.6562 9.93195 42.4922 9.93664 42.2906C10.0304 38.6719 11.4835 35.2828 14.0523 32.7141C16.7101 30.0563 20.2398 28.5938 23.9991 28.5938C27.7585 28.5938 31.2882 30.0563 33.946 32.7141C36.5148 35.2828 37.9679 38.6719 38.0616 42.2906C38.0663 42.4969 38.2304 42.6562 38.4366 42.6562H41.2491C41.2992 42.6563 41.3487 42.6463 41.3948 42.6268C41.441 42.6074 41.4827 42.5789 41.5177 42.5431C41.5526 42.5073 41.5801 42.4648 41.5983 42.4183C41.6166 42.3717 41.6254 42.3219 41.6241 42.2719C41.5773 40.0312 41.1132 37.8516 40.2413 35.7937ZM23.9991 25.0312C21.8476 25.0312 19.8226 24.1922 18.2991 22.6688C16.7757 21.1453 15.9366 19.1203 15.9366 16.9688C15.9366 14.8172 16.7757 12.7922 18.2991 11.2687C19.8226 9.74531 21.8476 8.90625 23.9991 8.90625C26.1507 8.90625 28.1757 9.74531 29.6991 11.2687C31.2226 12.7922 32.0616 14.8172 32.0616 16.9688C32.0616 19.1203 31.2226 21.1453 29.6991 22.6688C28.1757 24.1922 26.1507 25.0312 23.9991 25.0312Z" fill="#F24405"/>
</svg>
